<svg width="54" height="54" viewBox="0 0 54 54" fill="none" xmlns="http://www.w3.org/2000/svg">
<circle cx="27" cy="27" r="27" fill="#D9D9D9"/>
<g clip-path="url(#clip0_2262_517)">
<path d="M39.61 33.5201C38.0031 31.7791 36.0532 30.3897 33.8829 29.4394C31.7127 28.4891 29.3692 27.9985 27 27.9985C24.6308 27.9985 22.2873 28.4891 20.1171 29.4394C17.9468 30.3897 15.9969 31.7791 14.39 33.5201C14.1411 33.7939 14.0022 34.1501 14 34.5201V40.5201C14.0053 40.9144 14.1656 41.2908 14.4463 41.5678C14.7271 41.8448 15.1056 42.0001 15.5 42.0001H38.5C38.8978 42.0001 39.2794 41.8421 39.5607 41.5607C39.842 41.2794 40 40.8979 40 40.5001V34.5001C39.9929 34.137 39.8544 33.7888 39.61 33.5201Z" fill="#494949"/>
<path d="M27 26C30.866 26 34 22.866 34 19C34 15.134 30.866 12 27 12C23.134 12 20 15.134 20 19C20 22.866 23.134 26 27 26Z" fill="#494949"/>
</g>
<defs>
<clipPath id="clip0_2262_517">
<rect width="36" height="36" fill="white" transform="translate(9 9)"/>
</clipPath>
</defs>
</svg>
